<?xml version="1.0" encoding="utf-8"?>
<!-- Generator: Adobe Illustrator 15.1.0, SVG Export Plug-In . SVG Version: 6.00 Build 0)  -->
<!DOCTYPE svg PUBLIC "-//W3C//DTD SVG 1.1//EN" "http://www.w3.org/Graphics/SVG/1.1/DTD/svg11.dtd">
<svg version="1.1" id="Layer_1" xmlns="http://www.w3.org/2000/svg" xmlns:xlink="http://www.w3.org/1999/xlink" x="0px" y="0px"
	 width="38px" height="38px" viewBox="0 0 38 38" enable-background="new 0 0 38 38" xml:space="preserve">
<path opacity="0.5" fill="#B6BFBE" d="M35.521,2.48C33.045,0,30.566,0,26.257,0H11.741C7.432,0,4.955,0,2.477,2.48
	C0,4.957,0,7.434,0,11.743v14.515c0,4.311,0,6.787,2.477,9.266C4.955,38,7.432,38,11.741,38h14.516c4.31,0,6.788,0,9.265-2.477
	C38,33.045,38,30.568,38,26.258V11.743C38,7.434,38,4.957,35.521,2.48z M12.67,29.758H8.248V15.604h4.422V29.758z M10.345,13.833
	h-0.031c-1.598,0-2.638-1.082-2.638-2.451c0-1.399,1.07-2.458,2.7-2.458c1.632,0,2.636,1.056,2.667,2.453
	C13.043,12.748,12.008,13.833,10.345,13.833z M30.364,29.758H25.35v-7.324c0-1.916-0.783-3.224-2.51-3.224
	c-1.32,0-2.051,0.88-2.393,1.732c-0.127,0.305-0.109,0.73-0.109,1.158v7.658h-4.967c0,0,0.063-12.976,0-14.154h4.967v2.221
	c0.295-0.971,1.882-2.357,4.416-2.357c3.14,0,5.61,2.036,5.61,6.419V29.758z"/>
</svg>
