<?xml version="1.0" encoding="utf-8"?>
<!-- Generator: Adobe Illustrator 15.1.0, SVG Export Plug-In . SVG Version: 6.00 Build 0)  -->
<!DOCTYPE svg PUBLIC "-//W3C//DTD SVG 1.1//EN" "http://www.w3.org/Graphics/SVG/1.1/DTD/svg11.dtd">
<svg version="1.1" id="Layer_1" xmlns="http://www.w3.org/2000/svg" xmlns:xlink="http://www.w3.org/1999/xlink" x="0px" y="0px"
	 width="38px" height="38px" viewBox="0 0 38 38" enable-background="new 0 0 38 38" xml:space="preserve">
<path opacity="0.5" fill="#B6BFBE" d="M35.52,2.479C33.039,0,30.565,0,26.256,0H11.741C7.433,0,4.953,0,2.475,2.479
	C0,4.956,0,7.433,0,11.742v14.516c0,4.309,0,6.788,2.475,9.265C4.953,38,7.433,38,11.741,38h14.515c4.31,0,6.783,0,9.264-2.478
	C38,33.046,38,30.566,38,26.258V11.742C38,7.433,38,4.956,35.52,2.479z M27.979,14.155c0.012,0.225,0.016,0.452,0.016,0.675
	c0,6.979-4.936,15.029-13.959,15.029c-2.777,0-5.352-0.876-7.521-2.383c0.386,0.05,0.775,0.073,1.173,0.073
	c2.296,0,4.412-0.835,6.093-2.259c-2.147-0.032-3.963-1.56-4.582-3.667c0.301,0.069,0.6,0.093,0.918,0.093
	c0.449,0,0.883-0.055,1.295-0.173c-2.242-0.494-3.933-2.625-3.933-5.18c0-0.022,0-0.05,0-0.071c0.659,0.397,1.413,0.623,2.218,0.655
	c-1.316-0.932-2.181-2.56-2.181-4.387c0-0.973,0.242-1.879,0.661-2.656c2.422,3.189,6.041,5.302,10.111,5.51
	c-0.081-0.379-0.124-0.785-0.124-1.195c0-2.921,2.194-5.285,4.905-5.285c1.408,0,2.688,0.643,3.579,1.676
	c1.119-0.254,2.171-0.685,3.124-1.285c-0.372,1.234-1.151,2.264-2.167,2.918c0.998-0.127,1.938-0.405,2.821-0.832
	C29.771,12.469,28.936,13.399,27.979,14.155z"/>
</svg>
